<?xml version="1.0" encoding="UTF-8"?>
<svg width="173px" height="41px" viewBox="0 0 173 41" version="1.1" xmlns="http://www.w3.org/2000/svg" xmlns:xlink="http://www.w3.org/1999/xlink">
    <title>greenhawk-logo</title>
    <defs>
        <path d="M9.01898876,22.5410693 C7.16910112,22.5410693 4.76550562,24.3535941 3.28842697,25.6461089 C2.61713483,23.8445446 2.1955618,21.7762772 2.83303371,21.1730495 C4.64713483,19.4579505 6.38337079,18.4439109 6.39949438,18.4329505 L6.64449438,18.2916832 L6.79983146,18.053396 C6.84151685,17.9908812 10.9966854,11.7430495 17.512191,10.824 C18.6255056,10.6677129 19.9216854,10.5942376 21.5883146,10.5942376 C22.6607303,10.5942376 23.7823034,10.625495 24.8676966,10.653099 C25.9542697,10.6827327 27.079382,10.7139901 28.1616292,10.7139901 C30.3847191,10.7123663 32.6239326,10.5974851 34.5316292,10.0019703 C34.5316292,9.54812871 34.5316292,9.12229703 34.5316292,8.71148515 C34.5316292,8.2519604 34.5316292,7.82085149 34.5316292,7.42871287 C34.5316292,5.84432673 34.5316292,4.85342574 34.5316292,4.85342574 C34.5316292,4.85342574 26.9106742,0 17.2664045,0 C7.61898876,0 8.8817842e-16,4.85342574 8.8817842e-16,4.85342574 C8.8817842e-16,4.85342574 8.8817842e-16,25.2576238 8.8817842e-16,29.7282475 C8.8817842e-16,32.9412673 13.5890449,40.6476436 17.2664045,40.6476436 C18.5024157,40.6476436 20.8596067,39.7736535 23.4448876,38.4937228 C23.7933146,38.321198 24.1472472,38.1413663 24.5043258,37.9554455 C24.8511798,37.7739901 25.1980337,37.5840099 25.5468539,37.3911881 C21.9976966,27.4188515 16.5491011,22.5410693 9.01898876,22.5410693" id="path-1"></path>
        <linearGradient x1="0%" y1="49.9999001%" x2="99.9995445%" y2="49.9999001%" id="linearGradient-3">
            <stop stop-color="#179D8E" offset="0%"></stop>
            <stop stop-color="#2AAB6E" offset="100%"></stop>
        </linearGradient>
        <path d="M1.0828,3.70060976 C2.6544,6.23112195 2.1568,11.6002195 1.1292,16.6612439 C1.6088,16.3564878 2.0768,16.0484146 2.5296,15.7395122 C3.024,15.3999268 3.4972,15.0595122 3.9452,14.7199268 C6.1168,13.0759024 7.6436,11.4791463 7.6436,10.3911463 C7.6436,9.33134146 7.6436,6.31156098 7.6436,2.70963415 C7.6436,2.28795122 7.6436,1.85880488 7.6436,1.42302439 C7.6436,0.998439024 7.6436,0.570536585 7.6436,0.137243902 L0.2048,2.28795122 L1.0828,3.70060976" id="path-4"></path>
        <linearGradient x1="0%" y1="49.9992472%" x2="99.9983868%" y2="49.9992472%" id="linearGradient-6">
            <stop stop-color="#179D8E" offset="0%"></stop>
            <stop stop-color="#2AAB6E" offset="100%"></stop>
        </linearGradient>
        <path d="M3.684,2.7456 L0.165428571,3.9264 L3.71957143,5.0084 C3.73928571,5.0144 4.50985714,5.2536 5.61814286,5.6988 C5.61814286,5.2624 5.61814286,4.8312 5.61814286,4.4016 C5.61814286,3.7928 5.61814286,3.192 5.61814286,2.608 C5.61814286,1.7148 5.61814286,0.8632 5.61814286,0.0644 C4.98814286,1.4468 4.26771429,2.55 3.684,2.7456" id="path-7"></path>
        <linearGradient x1="0%" y1="50%" x2="99.9976421%" y2="50%" id="linearGradient-9">
            <stop stop-color="#179D8E" offset="0%"></stop>
            <stop stop-color="#2AAB6E" offset="100%"></stop>
        </linearGradient>
        <path d="M0.261,3.8205 C0.261,3.8205 1.76204348,5.656 4.45030435,4.5865 C5.52873913,4.1575 5.61365217,2.938 5.58430435,2.2655 C5.55691304,1.593 8.83095652,0.028 8.83095652,0.028 C7.137,0.1405 4.62208696,1.6565 3.32295652,2.792 C2.02304348,3.9265 0.261,3.8205 0.261,3.8205" id="path-10"></path>
        <linearGradient x1="0%" y1="49.9988257%" x2="99.9972604%" y2="49.9988257%" id="linearGradient-12">
            <stop stop-color="#179D8E" offset="0%"></stop>
            <stop stop-color="#2AAB6E" offset="100%"></stop>
        </linearGradient>
        <path d="M0.2244,1.56733333 C0.7748,1.97933333 1.6832,0.0533333333 1.6832,0.0533333333 L0.9668,0.0533333333 C0.9668,0.0533333333 -0.3268,1.15533333 0.2244,1.56733333" id="path-13"></path>
        <linearGradient x1="-0.00561525916%" y1="49.9939644%" x2="99.9949859%" y2="49.9939644%" id="linearGradient-15">
            <stop stop-color="#179D8E" offset="0%"></stop>
            <stop stop-color="#2AAB6E" offset="100%"></stop>
        </linearGradient>
    </defs>
    <g id="Page-1" stroke="none" stroke-width="1" fill="none" fill-rule="evenodd">
        <g id="Sign-up" transform="translate(-135.000000, -23.000000)">
            <g id="header1" transform="translate(-240.000000, 0.000000)">
                <g id="greenhawk-logo" transform="translate(375.000000, 23.000000)">
                    <path d="M56.894,25.168 C57.6033333,25.168 58.308,25.0606667 59.008,24.846 C59.708,24.6313333 60.324,24.3233333 60.856,23.922 L60.856,23.922 L60.856,19.946 L58.784,19.946 L58.784,22.816 C58.2613333,23.096 57.6733333,23.236 57.02,23.236 C56.404,23.236 55.8556667,23.103 55.375,22.837 C54.8943333,22.571 54.5186667,22.2 54.248,21.724 C53.9773333,21.248 53.842,20.7066667 53.842,20.1 C53.842,19.484 53.9773333,18.938 54.248,18.462 C54.5186667,17.986 54.8966667,17.6173333 55.382,17.356 C55.8673333,17.0946667 56.4226667,16.964 57.048,16.964 C58.0373333,16.964 58.882,17.3326667 59.582,18.07 L59.582,18.07 L61.038,16.726 C60.562,16.1753333 59.974,15.7553333 59.274,15.466 C58.574,15.1766667 57.7946667,15.032 56.936,15.032 C55.9093333,15.032 54.9853333,15.249 54.164,15.683 C53.3426667,16.117 52.701,16.719 52.239,17.489 C51.777,18.259 51.546,19.1293333 51.546,20.1 C51.546,21.0706667 51.777,21.941 52.239,22.711 C52.701,23.481 53.338,24.083 54.15,24.517 C54.962,24.951 55.8766667,25.168 56.894,25.168 Z M67.224,25 L67.224,22.27 L69.31,22.27 L71.2,25 L73.636,25 L71.438,21.85 C72.082,21.57 72.579,21.1663333 72.929,20.639 C73.279,20.1116667 73.454,19.484 73.454,18.756 C73.454,18.028 73.2813333,17.398 72.936,16.866 C72.5906667,16.334 72.0983333,15.9233333 71.459,15.634 C70.8196667,15.3446667 70.066,15.2 69.198,15.2 L69.198,15.2 L64.956,15.2 L64.956,25 L67.224,25 Z M69.072,20.464 L67.224,20.464 L67.224,17.048 L69.072,17.048 C69.7533333,17.048 70.2713333,17.195 70.626,17.489 C70.9806667,17.783 71.158,18.2053333 71.158,18.756 C71.158,19.2973333 70.9806667,19.7173333 70.626,20.016 C70.2713333,20.3146667 69.7533333,20.464 69.072,20.464 L69.072,20.464 Z M84.834,25 L84.834,23.18 L79.5,23.18 L79.5,20.912 L84.05,20.912 L84.05,19.148 L79.5,19.148 L79.5,17.02 L84.652,17.02 L84.652,15.2 L77.246,15.2 L77.246,25 L84.834,25 Z M96.228,25 L96.228,23.18 L90.894,23.18 L90.894,20.912 L95.444,20.912 L95.444,19.148 L90.894,19.148 L90.894,17.02 L96.046,17.02 L96.046,15.2 L88.64,15.2 L88.64,25 L96.228,25 Z M102.274,25 L102.274,19.05 L107.16,25 L109.022,25 L109.022,15.2 L106.782,15.2 L106.782,21.15 L101.91,15.2 L100.034,15.2 L100.034,25 L102.274,25 Z M121.576,25 L121.576,20.982 L126.028,20.982 L126.028,25 L128.296,25 L128.296,15.2 L126.028,15.2 L126.028,19.064 L121.576,19.064 L121.576,15.2 L119.308,15.2 L119.308,25 L121.576,25 Z M133.656,25 L134.524,22.9 L139.074,22.9 L139.942,25 L142.322,25 L137.94,15.2 L135.7,15.2 L131.332,25 L133.656,25 Z M138.36,21.178 L135.252,21.178 L136.806,17.426 L138.36,21.178 Z M149.6,25 L151.826,18.364 L153.982,25 L156.418,25 L159.624,15.2 L157.454,15.2 L155.172,22.144 L152.932,15.2 L150.832,15.2 L148.522,22.088 L146.31,15.2 L143.958,15.2 L147.178,25 L149.6,25 Z M165.138,25 L165.138,22.522 L166.454,21.15 L169.59,25 L172.236,25 L167.938,19.568 L171.998,15.2 L169.478,15.2 L165.138,19.778 L165.138,15.2 L162.884,15.2 L162.884,25 L165.138,25 Z" id="GREENHAWK" fill="#3E3E3E" fill-rule="nonzero"></path>
                    <g id="color">
                        <g id="Group-3" transform="translate(-0.000000, 0.000000)">
                            <mask id="mask-2" fill="white">
                                <use xlink:href="#path-1"></use>
                            </mask>
                            <g id="Clip-2"></g>
                            <path d="M9.01898876,22.5410693 C7.16910112,22.5410693 4.76550562,24.3535941 3.28842697,25.6461089 C2.61713483,23.8445446 2.1955618,21.7762772 2.83303371,21.1730495 C4.64713483,19.4579505 6.38337079,18.4439109 6.39949438,18.4329505 L6.64449438,18.2916832 L6.79983146,18.053396 C6.84151685,17.9908812 10.9966854,11.7430495 17.512191,10.824 C18.6255056,10.6677129 19.9216854,10.5942376 21.5883146,10.5942376 C22.6607303,10.5942376 23.7823034,10.625495 24.8676966,10.653099 C25.9542697,10.6827327 27.079382,10.7139901 28.1616292,10.7139901 C30.3847191,10.7123663 32.6239326,10.5974851 34.5316292,10.0019703 C34.5316292,9.54812871 34.5316292,9.12229703 34.5316292,8.71148515 C34.5316292,8.2519604 34.5316292,7.82085149 34.5316292,7.42871287 C34.5316292,5.84432673 34.5316292,4.85342574 34.5316292,4.85342574 C34.5316292,4.85342574 26.9106742,0 17.2664045,0 C7.61898876,0 8.8817842e-16,4.85342574 8.8817842e-16,4.85342574 C8.8817842e-16,4.85342574 8.8817842e-16,25.2576238 8.8817842e-16,29.7282475 C8.8817842e-16,32.9412673 13.5890449,40.6476436 17.2664045,40.6476436 C18.5024157,40.6476436 20.8596067,39.7736535 23.4448876,38.4937228 C23.7933146,38.321198 24.1472472,38.1413663 24.5043258,37.9554455 C24.8511798,37.7739901 25.1980337,37.5840099 25.5468539,37.3911881 C21.9976966,27.4188515 16.5491011,22.5410693 9.01898876,22.5410693" id="Fill-1" fill="url(#linearGradient-3)" mask="url(#mask-2)"></path>
                        </g>
                        <g id="Group-6" transform="translate(26.882022, 18.663881)">
                            <mask id="mask-5" fill="white">
                                <use xlink:href="#path-4"></use>
                            </mask>
                            <g id="Clip-5"></g>
                            <path d="M1.0828,3.70060976 C2.6544,6.23112195 2.1568,11.6002195 1.1292,16.6612439 C1.6088,16.3564878 2.0768,16.0484146 2.5296,15.7395122 C3.024,15.3999268 3.4972,15.0595122 3.9452,14.7199268 C6.1168,13.0759024 7.6436,11.4791463 7.6436,10.3911463 C7.6436,9.33134146 7.6436,6.31156098 7.6436,2.70963415 C7.6436,2.28795122 7.6436,1.85880488 7.6436,1.42302439 C7.6436,0.998439024 7.6436,0.570536585 7.6436,0.137243902 L0.2048,2.28795122 L1.0828,3.70060976" id="Fill-4" fill="url(#linearGradient-6)" mask="url(#mask-5)"></path>
                        </g>
                        <g id="Group-9" transform="translate(28.882022, 10.663881)">
                            <mask id="mask-8" fill="white">
                                <use xlink:href="#path-7"></use>
                            </mask>
                            <g id="Clip-8"></g>
                            <path d="M3.684,2.7456 L0.165428571,3.9264 L3.71957143,5.0084 C3.73928571,5.0144 4.50985714,5.2536 5.61814286,5.6988 C5.61814286,5.2624 5.61814286,4.8312 5.61814286,4.4016 C5.61814286,3.7928 5.61814286,3.192 5.61814286,2.608 C5.61814286,1.7148 5.61814286,0.8632 5.61814286,0.0644 C4.98814286,1.4468 4.26771429,2.55 3.684,2.7456" id="Fill-7" fill="url(#linearGradient-9)" mask="url(#mask-8)"></path>
                        </g>
                        <g id="Group-12" transform="translate(10.882022, 14.663881)">
                            <mask id="mask-11" fill="white">
                                <use xlink:href="#path-10"></use>
                            </mask>
                            <g id="Clip-11"></g>
                            <path d="M0.261,3.8205 C0.261,3.8205 1.76204348,5.656 4.45030435,4.5865 C5.52873913,4.1575 5.61365217,2.938 5.58430435,2.2655 C5.55691304,1.593 8.83095652,0.028 8.83095652,0.028 C7.137,0.1405 4.62208696,1.6565 3.32295652,2.792 C2.02304348,3.9265 0.261,3.8205 0.261,3.8205" id="Fill-10" fill="url(#linearGradient-12)" mask="url(#mask-11)"></path>
                        </g>
                        <g id="Group-15" transform="translate(6.882022, 19.663881)">
                            <mask id="mask-14" fill="white">
                                <use xlink:href="#path-13"></use>
                            </mask>
                            <g id="Clip-14"></g>
                            <path d="M0.2244,1.56733333 C0.7748,1.97933333 1.6832,0.0533333333 1.6832,0.0533333333 L0.9668,0.0533333333 C0.9668,0.0533333333 -0.3268,1.15533333 0.2244,1.56733333" id="Fill-13" fill="url(#linearGradient-15)" mask="url(#mask-14)"></path>
                        </g>
                    </g>
                </g>
            </g>
        </g>
    </g>
</svg>